<?xml version="1.0" encoding="UTF-8" standalone="no" ?>
<!DOCTYPE svg PUBLIC "-//W3C//DTD SVG 1.1//EN" "http://www.w3.org/Graphics/SVG/1.1/DTD/svg11.dtd">
<svg xmlns="http://www.w3.org/2000/svg" xmlns:xlink="http://www.w3.org/1999/xlink" version="1.1" width="1080" height="1080" viewBox="0 0 1080 1080" xml:space="preserve">
<desc>Created with Fabric.js 5.2.4</desc>
<defs>
</defs>
<g transform="matrix(1 0 0 1 540 540)" id="c95d3fef-d556-431b-a486-39113b89edc0"  >
<rect style="stroke: none; stroke-width: 1; stroke-dasharray: none; stroke-linecap: butt; stroke-dashoffset: 0; stroke-linejoin: miter; stroke-miterlimit: 4; fill: rgb(255,255,255); fill-rule: nonzero; opacity: 1; visibility: hidden;" vector-effect="non-scaling-stroke"  x="-540" y="-540" rx="0" ry="0" width="1080" height="1080" />
</g>
<g transform="matrix(1 0 0 1 540 540)" id="c086ceb1-fade-4024-8d75-86e54a33ea7c"  >
</g>
<g transform="matrix(15.88 0 0 15.88 540 540)"  >
<g style=""   >
		<g transform="matrix(1 0 0 1 0.13 0.3)" clip-path="url(#CLIPPATH_3)"  >
<clipPath id="CLIPPATH_3" >
	<rect transform="matrix(1 0 0 1 -0.13 -0.3)" id="clip0_18_390" x="-34" y="-12" rx="0" ry="0" width="68" height="24" />
</clipPath>
<path style="stroke: none; stroke-width: 1; stroke-dasharray: none; stroke-linecap: butt; stroke-dashoffset: 0; stroke-linejoin: miter; stroke-miterlimit: 4; fill: rgb(111,82,138); fill-rule: nonzero; opacity: 1;" vector-effect="non-scaling-stroke"  transform=" translate(-34.13, -12.3)" d="M 10.6209 1.312 C 11.5276 1.312 12.3803 1.49333 13.179 1.856 C 13.9778 2.19733 14.6686 2.67733 15.2514 3.296 C 15.8559 3.89333 16.3307 4.608 16.6762 5.44001 C 17.0216 6.25066 17.1942 7.12532 17.1942 8.064 C 17.1942 9.00264 17.0216 9.888 16.6762 10.72 C 16.3307 11.5306 15.8559 12.2454 15.2514 12.864 C 14.6686 13.4826 13.9778 13.9733 13.179 14.336 C 12.3803 14.6774 11.5276 14.848 10.6209 14.848 L 5.6019 14.848 L 5.6019 24 L 0.712372 24 L 0.712372 1.312 L 10.6209 1.312 Z M 9.97333 10.432 C 10.5993 10.432 11.139 10.208 11.5924 9.76001 C 12.0673 9.29064 12.3048 8.72536 12.3048 8.064 C 12.3048 7.424 12.0673 6.88001 11.5924 6.432 C 11.139 5.96266 10.5993 5.72801 9.97333 5.72801 L 5.6019 5.72801 L 5.6019 8.08001 L 5.6019 10.432 L 9.97333 10.432 Z M 19.1812 0.608002 L 20.8524 0.608002 L 23.6497 8.12801 L 23.6497 24 L 19.1812 24 L 19.1812 0.608002 Z M 36.5556 8.12801 L 41.0242 8.12801 L 41.0242 12.896 L 41.0242 24 L 37.2032 24 L 36.5556 22.784 C 36.0374 23.1466 35.4438 23.4454 34.7746 23.68 C 34.1269 23.8934 33.4255 24 32.6698 24 C 32.0869 24 31.4178 23.9146 30.6622 23.744 C 29.9282 23.5733 29.2374 23.2533 28.5898 22.784 C 27.9422 22.3147 27.3918 21.664 26.9385 20.832 C 26.5067 20 26.2908 18.9226 26.2908 17.6 L 26.2908 8.12801 L 30.7918 8.12801 L 30.7918 17.44 C 30.7918 17.9307 30.8673 18.3466 31.0185 18.688 C 31.1911 19.0294 31.4069 19.3066 31.6661 19.52 C 31.9467 19.712 32.2597 19.8614 32.6051 19.968 C 32.9504 20.0534 33.3067 20.096 33.6737 20.096 C 33.9542 20.096 34.2566 20.0534 34.5803 19.968 C 34.9257 19.8614 35.2387 19.7013 35.5193 19.488 C 35.8216 19.2747 36.0698 18.9974 36.2642 18.656 C 36.4585 18.3147 36.5556 17.9093 36.5556 17.44 L 36.5556 8.12801 Z M 61.8441 8.12801 C 62.427 8.12801 63.053 8.22401 63.7222 8.41601 C 64.3913 8.60801 65.0066 8.94936 65.5678 9.44 C 66.1507 9.93064 66.6257 10.6026 66.9926 11.456 C 67.3597 12.3094 67.5431 13.3974 67.5431 14.72 L 67.5431 24 L 63.0746 24 L 63.0746 15.52 C 63.0746 14.88 62.999 14.336 62.8478 13.888 C 62.7183 13.44 62.5348 13.0774 62.2973 12.8 C 62.06 12.5226 61.7793 12.3306 61.4554 12.224 C 61.1533 12.096 60.8402 12.032 60.5165 12.032 C 60.2142 12.032 59.9121 12.0854 59.6097 12.192 C 59.3076 12.2986 59.0377 12.48 58.8002 12.736 C 58.5628 12.992 58.3686 13.344 58.2173 13.792 C 58.0878 14.24 58.0231 14.8054 58.0231 15.488 L 58.0231 24 L 53.5546 24 L 53.5546 15.52 C 53.5546 14.2186 53.3278 13.312 52.8746 12.8 C 52.4212 12.288 51.7628 12.032 50.8993 12.032 C 50.2733 12.032 49.7121 12.32 49.2155 12.896 C 48.719 13.472 48.4707 14.368 48.4707 15.584 L 48.4707 24 L 44.0022 24 L 44.0022 8.12801 L 47.8231 8.12801 L 48.4707 9.6 C 48.9673 9.13063 49.5393 8.768 50.187 8.51201 C 50.8561 8.256 51.5684 8.12801 52.3241 8.12801 C 52.7126 8.12801 53.1228 8.17063 53.5546 8.256 C 53.9863 8.32001 54.4073 8.448 54.8173 8.64 C 55.2276 8.832 55.6161 9.08801 55.9831 9.408 C 56.3717 9.70665 56.7171 10.0906 57.0193 10.56 C 57.2783 10.1546 57.5913 9.80265 57.9583 9.504 C 58.3253 9.18401 58.7247 8.928 59.1565 8.736 C 59.5882 8.52264 60.0307 8.37336 60.4841 8.288 C 60.959 8.18136 61.4123 8.12801 61.8441 8.12801 Z" stroke-linecap="round" />
</g>
		<g transform="matrix(1 0 0 1 -1.3 2.59)" clip-path="url(#CLIPPATH_4)"  >
<clipPath id="CLIPPATH_4" >
	<rect transform="matrix(1 0 0 1 1.3 -2.59)" id="clip0_18_390" x="-34" y="-12" rx="0" ry="0" width="68" height="24" />
</clipPath>
<path style="stroke: none; stroke-width: 1; stroke-dasharray: none; stroke-linecap: butt; stroke-dashoffset: 0; stroke-linejoin: miter; stroke-miterlimit: 4; fill: rgb(111,82,138); fill-rule: nonzero; opacity: 1;" vector-effect="non-scaling-stroke"  transform=" translate(-32.7, -14.59)" d="M 33.7019 10.4048 C 33.7019 10.4048 32.6937 11.656 32.3642 12.7101 C 32.2063 13.2154 31.984 13.5058 31.8849 14.0346 C 31.7157 14.9381 31.5481 15.4934 31.7344 16.3913 C 31.8131 16.7703 31.9213 17.1946 32.0553 17.5479 C 32.249 18.0589 32.1363 18.2054 32.5217 18.4941 C 32.7229 18.6445 32.8813 18.695 33.1118 18.7429 C 33.3392 18.7902 33.7438 18.7846 33.7438 18.7846" stroke-linecap="round" />
</g>
		<g transform="matrix(1 0 0 1 0.48 2.6)" clip-path="url(#CLIPPATH_5)"  >
<clipPath id="CLIPPATH_5" >
	<rect transform="matrix(1 0 0 1 -0.48 -2.6)" id="clip0_18_390" x="-34" y="-12" rx="0" ry="0" width="68" height="24" />
</clipPath>
<path style="stroke: none; stroke-width: 1; stroke-dasharray: none; stroke-linecap: butt; stroke-dashoffset: 0; stroke-linejoin: miter; stroke-miterlimit: 4; fill: rgb(111,82,138); fill-rule: nonzero; opacity: 1;" vector-effect="non-scaling-stroke"  transform=" translate(-34.48, -14.6)" d="M 33.7018 10.4048 C 33.7018 10.4048 34.6063 11.6363 34.9353 12.6906 C 35.0931 13.196 35.3152 13.4866 35.414 14.0153 C 35.5829 14.9189 35.7503 15.4744 35.5636 16.3723 C 35.4848 16.7512 35.3764 17.1754 35.2422 17.5287 C 35.0484 18.0395 35.1027 18.2925 34.717 18.5807 C 34.5159 18.7312 34.3673 18.7168 34.1367 18.7645 C 33.9094 18.8117 33.3085 18.7645 33.3085 18.7645" stroke-linecap="round" />
</g>
</g>
</g>
</svg>