<?xml version="1.0" encoding="UTF-8" standalone="no" ?>
<!DOCTYPE svg PUBLIC "-//W3C//DTD SVG 1.1//EN" "http://www.w3.org/Graphics/SVG/1.1/DTD/svg11.dtd">
<svg xmlns="http://www.w3.org/2000/svg" xmlns:xlink="http://www.w3.org/1999/xlink" version="1.1" width="1080" height="1080" viewBox="0 0 1080 1080" xml:space="preserve">
<desc>Created with Fabric.js 5.2.4</desc>
<defs>
</defs>
<rect x="0" y="0" width="100%" height="100%" fill="transparent"></rect>
<g transform="matrix(1 0 0 1 540 540)" id="c95d3fef-d556-431b-a486-39113b89edc0"  >
<rect style="stroke: none; stroke-width: 1; stroke-dasharray: none; stroke-linecap: butt; stroke-dashoffset: 0; stroke-linejoin: miter; stroke-miterlimit: 4; fill: rgb(255,255,255); fill-rule: nonzero; opacity: 1; visibility: hidden;" vector-effect="non-scaling-stroke"  x="-540" y="-540" rx="0" ry="0" width="1080" height="1080" />
</g>
<g transform="matrix(1 0 0 1 540 540)" id="c086ceb1-fade-4024-8d75-86e54a33ea7c"  >
</g>
<g transform="matrix(33.75 0 0 33.75 540 540)"  >
<path style="stroke: rgb(0,33,15); stroke-width: 2; stroke-dasharray: none; stroke-linecap: round; stroke-dashoffset: 0; stroke-linejoin: round; stroke-miterlimit: 4; fill: none; fill-rule: nonzero; opacity: 1;"  transform=" translate(-16, -16)" d="M 20 20 L 28 28 M 13.3333 22.6667 C 8.17868 22.6667 4 18.488 4 13.3333 C 4 8.17868 8.17868 4 13.3333 4 C 18.488 4 22.6667 8.17868 22.6667 13.3333 C 22.6667 18.488 18.488 22.6667 13.3333 22.6667 Z" stroke-linecap="round" />
</g>
</svg>