<?xml version="1.0" encoding="UTF-8" standalone="no" ?>
<!DOCTYPE svg PUBLIC "-//W3C//DTD SVG 1.1//EN" "http://www.w3.org/Graphics/SVG/1.1/DTD/svg11.dtd">
<svg xmlns="http://www.w3.org/2000/svg" xmlns:xlink="http://www.w3.org/1999/xlink" version="1.1" width="1080" height="1080" viewBox="0 0 1080 1080" xml:space="preserve">
<desc>Created with Fabric.js 5.2.4</desc>
<defs>
</defs>
<rect x="0" y="0" width="100%" height="100%" fill="transparent"></rect>
<g transform="matrix(1 0 0 1 540 540)" id="c95d3fef-d556-431b-a486-39113b89edc0"  >
<rect style="stroke: none; stroke-width: 1; stroke-dasharray: none; stroke-linecap: butt; stroke-dashoffset: 0; stroke-linejoin: miter; stroke-miterlimit: 4; fill: rgb(255,255,255); fill-rule: nonzero; opacity: 1; visibility: hidden;" vector-effect="non-scaling-stroke"  x="-540" y="-540" rx="0" ry="0" width="1080" height="1080" />
</g>
<g transform="matrix(1 0 0 1 540 540)" id="c086ceb1-fade-4024-8d75-86e54a33ea7c"  >
</g>
<g transform="matrix(45 0 0 45 540 540)"  >
<path style="stroke: rgb(86,58,112); stroke-width: 2; stroke-dasharray: none; stroke-linecap: round; stroke-dashoffset: 0; stroke-linejoin: round; stroke-miterlimit: 4; fill: none; fill-rule: nonzero; opacity: 1;"  transform=" translate(-12, -12.19)" d="M 20 5.6001 C 20 5.04005 19.9996 4.75981 19.8906 4.5459 C 19.7948 4.35774 19.6423 4.20487 19.4542 4.10899 C 19.2403 4 18.9597 4 18.3996 4 L 5.59961 4 C 5.03956 4 4.75981 4 4.5459 4.10899 C 4.35774 4.20487 4.20487 4.35774 4.10899 4.5459 C 4 4.75981 4 5.04005 4 5.6001 L 4 6.33736 C 4 6.58195 4 6.70433 4.02763 6.81942 C 4.05213 6.92146 4.09263 7.01893 4.14746 7.1084 C 4.20928 7.20928 4.29591 7.29591 4.46875 7.46875 L 9.53149 12.5315 C 9.70443 12.7044 9.79044 12.7904 9.85228 12.8914 C 9.90711 12.9808 9.94816 13.0786 9.97266 13.1807 C 10 13.2946 10 13.4155 10 13.6552 L 10 18.411 C 10 19.2682 10 19.6971 10.1805 19.9552 C 10.3382 20.1806 10.5814 20.331 10.8535 20.3712 C 11.1651 20.4172 11.5487 20.2257 12.3154 19.8424 L 13.1154 19.4424 C 13.4365 19.2819 13.5966 19.2013 13.7139 19.0815 C 13.8176 18.9756 13.897 18.8485 13.9453 18.7084 C 14 18.5499 14 18.37 14 18.011 L 14 13.6626 C 14 13.418 14 13.2958 14.0276 13.1807 C 14.0521 13.0786 14.0926 12.9808 14.1475 12.8914 C 14.2089 12.7911 14.2947 12.7053 14.4653 12.5347 L 14.4688 12.5315 L 19.5315 7.46875 C 19.7044 7.2958 19.7904 7.20932 19.8523 7.1084 C 19.9071 7.01893 19.9482 6.92146 19.9727 6.81942 C 20 6.70551 20 6.58444 20 6.3448 L 20 5.6001 Z" stroke-linecap="round" />
</g>
</svg>