<?xml version="1.0" encoding="UTF-8" standalone="no" ?>
<!DOCTYPE svg PUBLIC "-//W3C//DTD SVG 1.1//EN" "http://www.w3.org/Graphics/SVG/1.1/DTD/svg11.dtd">
<svg xmlns="http://www.w3.org/2000/svg" xmlns:xlink="http://www.w3.org/1999/xlink" version="1.1" width="1080" height="1080" viewBox="0 0 1080 1080" xml:space="preserve">
<desc>Created with Fabric.js 5.2.4</desc>
<defs>
</defs>
<rect x="0" y="0" width="100%" height="100%" fill="transparent"></rect>
<g transform="matrix(1 0 0 1 540 540)" id="c95d3fef-d556-431b-a486-39113b89edc0"  >
<rect style="stroke: none; stroke-width: 1; stroke-dasharray: none; stroke-linecap: butt; stroke-dashoffset: 0; stroke-linejoin: miter; stroke-miterlimit: 4; fill: rgb(255,255,255); fill-rule: nonzero; opacity: 1; visibility: hidden;" vector-effect="non-scaling-stroke"  x="-540" y="-540" rx="0" ry="0" width="1080" height="1080" />
</g>
<g transform="matrix(1 0 0 1 540 540)" id="c086ceb1-fade-4024-8d75-86e54a33ea7c"  >
</g>
<g transform="matrix(33.75 0 0 33.75 540 540)"  >
<path style="stroke: rgb(0,33,15); stroke-width: 2; stroke-dasharray: none; stroke-linecap: round; stroke-dashoffset: 0; stroke-linejoin: round; stroke-miterlimit: 4; fill: none; fill-rule: nonzero; opacity: 1;"  transform=" translate(-16, -16)" d="M 24 16 L 24 22.6667 C 24 24.8759 20.4183 26.6667 16 26.6667 C 11.5817 26.6667 8 24.8759 8 22.6667 L 8 16 M 24 16 L 24 9.33337 M 24 16 C 24 18.2092 20.4183 20 16 20 C 11.5817 20 8 18.2092 8 16 M 8 16 L 8 9.33337 M 24 9.33337 C 24 7.12424 20.4183 5.33337 16 5.33337 C 11.5817 5.33337 8 7.12424 8 9.33337 M 24 9.33337 C 24 11.5425 20.4183 13.3334 16 13.3334 C 11.5817 13.3334 8 11.5425 8 9.33337" stroke-linecap="round" />
</g>
</svg>